# Blender 4.3.2
# www.blender.org
mtllib Shotgun.mtl
o Cube
v -0.070501 0.116213 0.851460
v -0.070501 0.327214 0.851460
v -0.070501 0.317214 -0.579541
v 0.070501 0.116213 0.851460
v 0.070501 0.327214 0.851460
v 0.070501 0.317214 -0.579541
v -0.084475 0.169095 -0.610347
v -0.090382 0.096196 -0.550180
v 0.050619 0.096196 -0.550180
v 0.056527 0.169095 -0.610347
v -0.070501 0.116213 1.389496
v -0.070501 0.222914 1.329714
v 0.070501 0.116213 1.389496
v 0.070501 0.222914 1.329714
v -0.070501 -0.070688 1.473438
v -0.070501 0.249702 1.458175
v 0.070501 -0.070688 1.473438
v 0.070501 0.249702 1.458175
v -0.070501 0.117210 1.033138
v 0.070501 0.117210 1.033138
v -0.070501 0.116567 2.458695
v -0.070501 -0.376807 2.395097
v -0.071081 0.119918 1.037383
v -0.071081 -0.093865 1.326838
v -0.071081 0.111615 1.091972
v -0.071081 0.098882 1.152402
v -0.071081 0.079166 1.202600
v -0.071081 0.055003 1.239210
v -0.071081 0.012392 1.275416
v -0.071081 -0.030123 1.311152
v 0.069921 -0.093865 1.326838
v 0.069921 0.119918 1.037383
v 0.069921 -0.030123 1.311152
v 0.069921 0.012392 1.275416
v 0.069921 0.055003 1.239210
v 0.069921 0.079166 1.202600
v 0.069921 0.098882 1.152402
v 0.069921 0.111615 1.091972
v 0.070501 -0.376807 2.395097
v 0.070501 0.116567 2.458695
v 0.000000 0.282461 0.780470
v 0.000000 0.291413 -2.317934
v 0.034791 0.296872 0.780470
v 0.028461 0.303202 -2.317934
v 0.049202 0.331664 0.780470
v 0.040250 0.331664 -2.317934
v 0.034791 0.366455 0.780470
v 0.028461 0.360125 -2.317934
v 0.000000 0.380866 0.780470
v 0.000000 0.371914 -2.317934
v -0.034791 0.366455 0.780470
v -0.028461 0.360125 -2.317934
v -0.049202 0.331664 0.780470
v -0.040250 0.331664 -2.317934
v -0.034791 0.296872 0.780470
v -0.028461 0.303202 -2.317934
v 0.034791 0.296872 -2.317934
v 0.000000 0.282461 -2.317934
v 0.049202 0.331664 -2.317934
v 0.034791 0.366455 -2.317934
v 0.000000 0.380866 -2.317934
v -0.034791 0.366455 -2.317934
v -0.049202 0.331664 -2.317934
v -0.034791 0.296872 -2.317934
v 0.000000 0.291413 -1.929631
v 0.028461 0.303202 -1.929631
v 0.040250 0.331664 -1.929631
v 0.028461 0.360125 -1.929631
v 0.000000 0.371914 -1.929631
v -0.028461 0.360125 -1.929631
v -0.040250 0.331664 -1.929631
v -0.028461 0.303202 -1.929631
v 0.000000 0.275720 0.780470
v 0.039558 0.292106 0.780470
v 0.055943 0.331664 0.780470
v 0.039558 0.371221 0.780470
v 0.000000 0.387607 0.780470
v -0.039558 0.371221 0.780470
v -0.055943 0.331664 0.780470
v -0.039558 0.292106 0.780470
v 0.000000 0.275720 0.780470
v 0.039558 0.292106 0.780470
v 0.055943 0.331664 0.780470
v 0.039558 0.371221 0.780470
v 0.000000 0.387607 0.780470
v -0.039558 0.371221 0.780470
v -0.055943 0.331664 0.780470
v -0.039558 0.292106 0.780470
v 0.000000 0.213767 0.852239
v 0.039558 0.230152 0.852239
v 0.055943 0.269710 0.852239
v 0.039558 0.309268 0.852239
v 0.000000 0.325653 0.852239
v -0.039558 0.309268 0.852239
v -0.055943 0.269710 0.852239
v -0.039558 0.230152 0.852239
v 0.000000 0.192461 0.780470
v 0.000000 0.201413 -2.317934
v 0.034791 0.206872 0.780470
v 0.028461 0.213202 -2.317934
v 0.049202 0.241664 0.780470
v 0.040250 0.241664 -2.317934
v 0.034791 0.276455 0.780470
v 0.028461 0.270125 -2.317934
v 0.000000 0.290866 0.780470
v 0.000000 0.281914 -2.317934
v -0.034791 0.276455 0.780470
v -0.028461 0.270125 -2.317934
v -0.049202 0.241664 0.780470
v -0.040250 0.241664 -2.317934
v -0.034791 0.206872 0.780470
v -0.028461 0.213202 -2.317934
v 0.034791 0.206872 -2.317934
v 0.000000 0.192461 -2.317934
v 0.049202 0.241664 -2.317934
v 0.034791 0.276455 -2.317934
v 0.000000 0.290866 -2.317934
v -0.034791 0.276455 -2.317934
v -0.049202 0.241664 -2.317934
v -0.034791 0.206872 -2.317934
v 0.000000 0.201413 -1.929631
v 0.028461 0.213202 -1.929631
v 0.040250 0.241664 -1.929631
v 0.028461 0.270125 -1.929631
v 0.000000 0.281914 -1.929631
v -0.028461 0.270125 -1.929631
v -0.040250 0.241664 -1.929631
v -0.028461 0.213202 -1.929631
vn -0.0000 0.2036 -0.9790
vn 0.9989 -0.0472 -0.0066
vn -0.0000 0.9770 0.2131
vn -0.9989 0.0472 0.0066
vn -0.0000 1.0000 -0.0070
vn -0.0000 -0.6365 -0.7712
vn -0.0000 -0.9999 0.0143
vn -0.0000 1.0000 0.0028
vn 1.0000 -0.0000 -0.0000
vn -1.0000 -0.0000 -0.0000
vn -0.0000 -1.0000 -0.0000
vn -0.0000 0.9913 0.1319
vn -0.0000 0.9789 -0.2041
vn -1.0000 0.0060 0.0033
vn 1.0000 -0.0060 -0.0033
vn -0.0000 -0.1278 0.9918
vn -0.0000 -0.8431 0.5378
vn -0.0000 -0.9886 -0.1504
vn -0.0000 -0.9785 -0.2062
vn -0.0000 -0.9308 -0.3656
vn -0.0000 -0.8346 -0.5508
vn -0.0000 -0.6475 -0.7621
vn -0.0000 -0.6434 -0.7655
vn -0.0000 -0.2390 -0.9710
vn -0.0000 -0.9877 0.1562
vn -0.0000 -0.9490 -0.3152
vn 0.3827 -0.9239 -0.0000
vn 0.9239 -0.3827 -0.0000
vn 0.9239 0.3827 -0.0000
vn 0.3827 0.9239 -0.0000
vn -0.3827 0.9239 -0.0000
vn -0.9239 0.3827 -0.0000
vn -0.9239 -0.3827 -0.0000
vn -0.3827 -0.9239 -0.0000
vn -0.0000 -0.0000 1.0000
vn -0.0000 -0.0000 -1.0000
vn -0.8773 0.3634 0.3137
vn -0.0000 1.0000 -0.0000
vn 0.2992 0.7223 0.6235
vn 0.8773 -0.3634 -0.3137
vn -0.8773 -0.3634 -0.3137
vn -0.2992 0.7223 0.6235
vn 0.8773 0.3634 0.3137
vn 0.2992 -0.7223 -0.6235
vn -0.2992 -0.7223 -0.6235
vt 0.899797 0.060564
vt 0.899981 0.018937
vt 0.939287 0.015402
vt 0.939104 0.057029
vt 0.037879 0.034787
vt 0.055890 0.015402
vt 0.098137 0.018482
vt 0.153741 0.415139
vt 0.095200 0.422929
vt 0.355475 0.415873
vt 0.394941 0.415873
vt 0.394941 0.550047
vt 0.355475 0.550047
vt 0.244873 0.422929
vt 0.186332 0.415139
vt 0.241937 0.018482
vt 0.284184 0.015402
vt 0.302194 0.034787
vt 0.355475 0.015402
vt 0.394941 0.015402
vt 0.939287 0.077527
vt 0.899981 0.081062
vt 0.827986 0.015402
vt 0.867449 0.015807
vt 0.868993 0.407935
vt 0.829530 0.407531
vt 0.937861 0.858422
vt 0.898396 0.858422
vt 0.898396 0.758683
vt 0.937861 0.758683
vt 0.142460 0.551679
vt 0.115063 0.572205
vt 0.225010 0.572205
vt 0.197613 0.551679
vt 0.867449 0.558484
vt 0.827986 0.558079
vt 0.355475 0.585917
vt 0.394941 0.585917
vt 0.394941 0.866350
vt 0.355475 0.866350
vt 0.273766 0.602395
vt 0.185439 0.586332
vt 0.154634 0.586332
vt 0.066308 0.602395
vt 0.237889 0.473298
vt 0.236982 0.474376
vt 0.237270 0.489828
vt 0.238572 0.507064
vt 0.242189 0.521719
vt 0.247541 0.532769
vt 0.258027 0.544387
vt 0.268503 0.555871
vt 0.285609 0.562577
vt 0.054464 0.562577
vt 0.071570 0.555871
vt 0.082046 0.544387
vt 0.092532 0.532768
vt 0.097884 0.521719
vt 0.101501 0.507064
vt 0.102803 0.489828
vt 0.103091 0.474376
vt 0.102184 0.473298
vt 0.898396 0.727879
vt 0.898396 0.589288
vt 0.937861 0.589288
vt 0.937861 0.727879
vt 0.898558 0.889226
vt 0.938023 0.889226
vt 0.937861 0.890398
vt 0.898396 0.890398
vt 0.937861 0.905724
vt 0.898396 0.905724
vt 0.937861 0.922711
vt 0.898396 0.922711
vt 0.937861 0.936878
vt 0.898396 0.936878
vt 0.937861 0.947271
vt 0.898396 0.947271
vt 0.355475 0.897155
vt 0.394941 0.897155
vt 0.394941 0.909098
vt 0.355475 0.909098
vt 0.394941 0.921015
vt 0.355475 0.921015
vt 0.394941 0.938863
vt 0.355475 0.938863
vt 0.867591 0.630190
vt 0.828126 0.630169
vt 0.827986 0.589288
vt 0.867451 0.589309
vt 0.154634 0.868837
vt 0.015402 0.869407
vt 0.867451 0.889964
vt 0.827986 0.889943
vt 0.324671 0.869407
vt 0.185439 0.868837
vt 0.737164 0.882503
vt 0.737164 0.015490
vt 0.746901 0.015402
vt 0.746901 0.882415
vt 0.425745 0.882621
vt 0.425745 0.015402
vt 0.435498 0.015405
vt 0.435498 0.882624
vt 0.445221 0.015402
vt 0.445221 0.882621
vt 0.626865 0.882613
vt 0.626865 0.015447
vt 0.636603 0.015402
vt 0.636603 0.882568
vt 0.646341 0.015447
vt 0.646341 0.882613
vt 0.476025 0.882624
vt 0.476025 0.015405
vt 0.485778 0.015402
vt 0.485778 0.882621
vt 0.946534 0.390874
vt 0.954488 0.390876
vt 0.954488 0.499559
vt 0.946534 0.499557
vt 0.495501 0.015405
vt 0.495501 0.882624
vt 0.727426 0.882415
vt 0.727426 0.015402
vt 0.288344 0.918201
vt 0.288344 0.907662
vt 0.295793 0.900212
vt 0.306329 0.900216
vt 0.313779 0.907671
vt 0.313779 0.918210
vt 0.306329 0.925660
vt 0.295793 0.925656
vt 0.902303 0.544222
vt 0.905603 0.552188
vt 0.903831 0.553960
vt 0.899797 0.544222
vt 0.913569 0.555488
vt 0.913569 0.557994
vt 0.921535 0.552188
vt 0.923307 0.553960
vt 0.924834 0.544222
vt 0.927340 0.544222
vt 0.921535 0.536256
vt 0.923307 0.534485
vt 0.913569 0.532957
vt 0.913569 0.530451
vt 0.905603 0.536256
vt 0.903831 0.534485
vt 0.482976 0.934245
vt 0.476879 0.928148
vt 0.476879 0.919525
vt 0.482976 0.913428
vt 0.491598 0.913428
vt 0.497695 0.919525
vt 0.497695 0.928148
vt 0.491598 0.934245
vt 0.899797 0.390934
vt 0.907764 0.390970
vt 0.907764 0.499647
vt 0.899797 0.499610
vt 0.915730 0.390934
vt 0.915730 0.499610
vt 0.976619 0.589288
vt 0.984598 0.589290
vt 0.984598 0.697973
vt 0.976619 0.697971
vt 0.907764 0.111866
vt 0.915730 0.111939
vt 0.915730 0.220596
vt 0.907764 0.220524
vt 0.962466 0.390874
vt 0.962466 0.499557
vt 0.968666 0.589290
vt 0.968666 0.697973
vt 0.899797 0.111938
vt 0.899797 0.220596
vt 0.044335 0.920670
vt 0.035860 0.929144
vt 0.023876 0.929144
vt 0.015402 0.920670
vt 0.015402 0.908686
vt 0.023876 0.900212
vt 0.035861 0.900212
vt 0.044335 0.908686
vt 0.134863 0.900212
vt 0.143259 0.907456
vt 0.143259 0.933992
vt 0.134863 0.926748
vt 0.783665 0.913307
vt 0.075139 0.920666
vt 0.075139 0.908682
vt 0.083609 0.900212
vt 0.095588 0.900216
vt 0.104059 0.908693
vt 0.104059 0.920676
vt 0.095588 0.929146
vt 0.083609 0.929142
vt 0.446023 0.913428
vt 0.446074 0.924500
vt 0.425796 0.924500
vt 0.425745 0.913428
vt 0.182430 0.914682
vt 0.190826 0.907438
vt 0.190826 0.933975
vt 0.182430 0.941218
vt 0.151625 0.914682
vt 0.151625 0.941218
vt 0.446023 0.935572
vt 0.425745 0.935572
vt 0.199192 0.900212
vt 0.199192 0.926748
vt 0.626966 0.924489
vt 0.626866 0.913417
vt 0.647327 0.913417
vt 0.647427 0.924489
vt 0.626865 0.935561
vt 0.647327 0.935561
vt 0.787444 0.882503
vt 0.787444 0.015490
vt 0.797181 0.015402
vt 0.797181 0.882415
vt 0.526305 0.882621
vt 0.526305 0.015402
vt 0.536058 0.015405
vt 0.536058 0.882624
vt 0.545781 0.015402
vt 0.545781 0.882621
vt 0.677146 0.882613
vt 0.677146 0.015447
vt 0.686883 0.015402
vt 0.686883 0.882568
vt 0.696621 0.015447
vt 0.696621 0.882613
vt 0.576585 0.882624
vt 0.576585 0.015405
vt 0.586338 0.015402
vt 0.586338 0.882621
vt 0.946534 0.251384
vt 0.954488 0.251386
vt 0.954488 0.360069
vt 0.946534 0.360067
vt 0.596061 0.015405
vt 0.596061 0.882624
vt 0.777706 0.882415
vt 0.777706 0.015402
vt 0.727426 0.931296
vt 0.727426 0.920757
vt 0.734875 0.913307
vt 0.745411 0.913311
vt 0.752861 0.920766
vt 0.752861 0.931305
vt 0.745411 0.938755
vt 0.734875 0.938751
vt 0.232502 0.913983
vt 0.235802 0.921949
vt 0.234030 0.923721
vt 0.229996 0.913983
vt 0.243768 0.925249
vt 0.243768 0.927755
vt 0.251734 0.921949
vt 0.253506 0.923721
vt 0.255034 0.913983
vt 0.257539 0.913983
vt 0.251734 0.906017
vt 0.253506 0.904245
vt 0.243768 0.902718
vt 0.243768 0.900212
vt 0.235802 0.906017
vt 0.234030 0.904245
vt 0.534596 0.934245
vt 0.528499 0.928148
vt 0.528499 0.919525
vt 0.534596 0.913428
vt 0.543219 0.913428
vt 0.549316 0.919525
vt 0.549316 0.928148
vt 0.543219 0.934245
vt 0.946534 0.111866
vt 0.954500 0.111903
vt 0.954500 0.220579
vt 0.946534 0.220543
vt 0.962466 0.111866
vt 0.962466 0.220543
vt 0.976619 0.728778
vt 0.984598 0.728780
vt 0.984598 0.837463
vt 0.976619 0.837461
vt 0.907764 0.251400
vt 0.915730 0.251472
vt 0.915730 0.360129
vt 0.907764 0.360057
vt 0.962466 0.251384
vt 0.962466 0.360067
vt 0.968666 0.728780
vt 0.968666 0.837463
vt 0.899798 0.251472
vt 0.899798 0.360129
s 0
usemtl Material.001
f 7/1/1 3/2/1 6/3/1 10/4/1
f 9/5/2 10/6/2 6/7/2 5/8/2 4/9/2
f 5/10/3 2/11/3 12/12/3 14/13/3
f 1/14/4 2/15/4 3/16/4 7/17/4 8/18/4
f 6/19/5 3/20/5 2/11/5 5/10/5
f 9/21/6 8/22/6 7/1/6 10/4/6
f 8/23/7 9/24/7 4/25/7 1/26/7
f 11/27/8 13/28/8 20/29/8 19/30/8
f 4/9/9 5/8/9 14/31/9 13/32/9
f 2/15/10 1/14/10 11/33/10 12/34/10
f 1/26/11 4/25/11 13/35/11 11/36/11
f 18/37/12 16/38/12 21/39/12 40/40/12
f 12/34/10 11/33/10 15/41/10 16/42/10
f 14/13/13 12/12/13 16/38/13 18/37/13
f 13/32/9 14/31/9 18/43/9 17/44/9
f 15/41/14 11/33/14 19/45/14 23/46/14 25/47/14 26/48/14 27/49/14 28/50/14 29/51/14 30/52/14 24/53/14
f 13/32/15 17/44/15 31/54/15 33/55/15 34/56/15 35/57/15 36/58/15 37/59/15 38/60/15 32/61/15 20/62/15
f 39/63/16 40/64/16 21/65/16 22/66/16
f 19/67/17 20/68/17 32/69/17 23/70/17
f 23/70/18 32/69/18 38/71/18 25/72/18
f 25/72/19 38/71/19 37/73/19 26/74/19
f 26/74/20 37/73/20 36/75/20 27/76/20
f 27/76/21 36/75/21 35/77/21 28/78/21
f 28/79/22 35/80/22 34/81/22 29/82/22
f 29/82/23 34/81/23 33/83/23 30/84/23
f 30/84/24 33/83/24 31/85/24 24/86/24
f 17/87/25 15/88/25 24/89/25 31/90/25
f 17/44/9 18/43/9 40/91/9 39/92/9
f 15/88/26 17/87/26 39/93/26 22/94/26
f 16/42/10 15/41/10 22/95/10 21/96/10
f 41/97/27 58/98/27 57/99/27 43/100/27
f 43/101/28 57/102/28 59/103/28 45/104/28
f 45/104/29 59/103/29 60/105/29 47/106/29
f 47/107/30 60/108/30 61/109/30 49/110/30
f 49/110/31 61/109/31 62/111/31 51/112/31
f 51/113/32 62/114/32 63/115/32 53/116/32
f 48/117/33 46/118/33 67/119/33 68/120/33
f 53/116/33 63/115/33 64/121/33 55/122/33
f 55/123/34 64/124/34 58/98/34 41/97/34
f 41/125/35 43/126/35 45/127/35 47/128/35 49/129/35 51/130/35 53/131/35 55/132/35
f 42/133/36 44/134/36 57/135/36 58/136/36
f 44/134/36 46/137/36 59/138/36 57/135/36
f 46/137/36 48/139/36 60/140/36 59/138/36
f 48/139/36 50/141/36 61/142/36 60/140/36
f 50/141/36 52/143/36 62/144/36 61/142/36
f 52/143/36 54/145/36 63/146/36 62/144/36
f 54/145/36 56/147/36 64/148/36 63/146/36
f 56/147/36 42/133/36 58/136/36 64/148/36
f 66/149/36 65/150/36 72/151/36 71/152/36 70/153/36 69/154/36 68/155/36 67/156/36
f 44/157/31 42/158/31 65/159/31 66/160/31
f 42/158/30 56/161/30 72/162/30 65/159/30
f 54/163/28 52/164/28 70/165/28 71/166/28
f 50/167/34 48/168/34 68/169/34 69/170/34
f 46/118/32 44/171/32 66/172/32 67/119/32
f 56/173/29 54/163/29 71/166/29 72/174/29
f 52/175/27 50/167/27 69/170/27 70/176/27
f 73/177/36 80/178/36 79/179/36 78/180/36 77/181/36 76/182/36 75/183/36 74/184/36
f 86/185/37 87/186/37 95/187/37 94/188/37
f 75/189/38 76/189/38 84/189/38 83/189/38
f 73/189/38 74/189/38 82/189/38 81/189/38
f 80/189/38 73/189/38 81/189/38 88/189/38
f 78/189/38 79/189/38 87/189/38 86/189/38
f 76/189/38 77/189/38 85/189/38 84/189/38
f 74/189/38 75/189/38 83/189/38 82/189/38
f 79/189/38 80/189/38 88/189/38 87/189/38
f 77/189/38 78/189/38 86/189/38 85/189/38
f 89/190/35 90/191/35 91/192/35 92/193/35 93/194/35 94/195/35 95/196/35 96/197/35
f 84/198/39 85/199/39 93/200/39 92/201/39
f 82/202/40 83/203/40 91/204/40 90/205/40
f 87/186/41 88/206/41 96/207/41 95/187/41
f 85/199/42 86/208/42 94/209/42 93/200/42
f 83/203/43 84/210/43 92/211/43 91/204/43
f 81/212/44 82/213/44 90/214/44 89/215/44
f 88/216/45 81/212/45 89/215/45 96/217/45
f 97/218/27 114/219/27 113/220/27 99/221/27
f 99/222/28 113/223/28 115/224/28 101/225/28
f 101/225/29 115/224/29 116/226/29 103/227/29
f 103/228/30 116/229/30 117/230/30 105/231/30
f 105/231/31 117/230/31 118/232/31 107/233/31
f 107/234/32 118/235/32 119/236/32 109/237/32
f 104/238/33 102/239/33 123/240/33 124/241/33
f 109/237/33 119/236/33 120/242/33 111/243/33
f 111/244/34 120/245/34 114/219/34 97/218/34
f 97/246/35 99/247/35 101/248/35 103/249/35 105/250/35 107/251/35 109/252/35 111/253/35
f 98/254/36 100/255/36 113/256/36 114/257/36
f 100/255/36 102/258/36 115/259/36 113/256/36
f 102/258/36 104/260/36 116/261/36 115/259/36
f 104/260/36 106/262/36 117/263/36 116/261/36
f 106/262/36 108/264/36 118/265/36 117/263/36
f 108/264/36 110/266/36 119/267/36 118/265/36
f 110/266/36 112/268/36 120/269/36 119/267/36
f 112/268/36 98/254/36 114/257/36 120/269/36
f 122/270/36 121/271/36 128/272/36 127/273/36 126/274/36 125/275/36 124/276/36 123/277/36
f 100/278/31 98/279/31 121/280/31 122/281/31
f 98/279/30 112/282/30 128/283/30 121/280/30
f 110/284/28 108/285/28 126/286/28 127/287/28
f 106/288/34 104/289/34 124/290/34 125/291/34
f 102/239/32 100/292/32 122/293/32 123/240/32
f 112/294/29 110/284/29 127/287/29 128/295/29
f 108/296/27 106/288/27 125/291/27 126/297/27
